<svg width="92" height="32" viewBox="0 0 92 32" fill="none" xmlns="http://www.w3.org/2000/svg">
<rect width="91.5044" height="32" rx="6" fill="black"/>
<mask id="mask0_1539_2343" style="mask-type:alpha" maskUnits="userSpaceOnUse" x="8" y="4" width="24" height="24">
<rect x="8" y="4" width="24" height="24" fill="#D9D9D9"/>
</mask>
<g mask="url(#mask0_1539_2343)">
<path d="M12 21.5V12C12 10.3833 12.7083 9.325 14.125 8.825C15.5417 8.325 17.1667 8.05 19 8L19.75 6.5H15V5H25V6.5H21.75L21 8C22.9833 8.05 24.6458 8.32083 25.9875 8.8125C27.3292 9.30417 28 10.3667 28 12V21.5C28 22.4833 27.6625 23.3125 26.9875 23.9875C26.3125 24.6625 25.4833 25 24.5 25L26 26.5V27H24L22 25H18L16 27H14V26.5L15.5 25C14.5167 25 13.6875 24.6625 13.0125 23.9875C12.3375 23.3125 12 22.4833 12 21.5ZM20 22C20.4167 22 20.7708 21.8542 21.0625 21.5625C21.3542 21.2708 21.5 20.9167 21.5 20.5C21.5 20.0833 21.3542 19.7292 21.0625 19.4375C20.7708 19.1458 20.4167 19 20 19C19.5833 19 19.2292 19.1458 18.9375 19.4375C18.6458 19.7292 18.5 20.0833 18.5 20.5C18.5 20.9167 18.6458 21.2708 18.9375 21.5625C19.2292 21.8542 19.5833 22 20 22ZM14 16H26V13H14V16ZM15.5 23H24.5C24.9333 23 25.2917 22.8583 25.575 22.575C25.8583 22.2917 26 21.9333 26 21.5V18H14V21.5C14 21.9333 14.1417 22.2917 14.425 22.575C14.7083 22.8583 15.0667 23 15.5 23ZM19.95 10C17.7167 10 16.2833 10.1208 15.65 10.3625C15.0167 10.6042 14.6 10.8167 14.4 11H25.65C25.45 10.7667 25.0167 10.5417 24.35 10.325C23.6833 10.1083 22.2167 10 19.95 10Z" fill="white"/>
</g>
<rect x="36" y="4.98633" width="21.4635" height="22.0278" rx="3" fill="#E82C27"/>
<path d="M47.2485 23.0141H49.4635V8.98633H47.8761C47.6915 10.8321 47.027 11.3489 44.5906 11.3489H44V13.1577H47.2485V23.0141Z" fill="white"/>
<rect x="61.4634" y="4.89355" width="26.0409" height="22.2124" rx="3" fill="#97533E"/>
<path d="M72.675 21.1125L75.2591 18.8607C77.9539 16.4981 79.1721 14.9476 79.1721 12.9542C79.1721 10.5547 77.3263 8.89355 74.6315 8.89355C71.7152 8.89355 69.7218 10.6286 69.5003 13.471L71.5675 13.8771C71.6783 11.8468 72.7857 10.7762 74.4838 10.7762C75.9235 10.7762 76.9202 11.736 76.9202 13.1388C76.9202 14.4308 76.2189 15.6121 74.3362 17.3102L69.4634 21.6662V23.1059H79.5043V21.1125H72.675Z" fill="white"/>
</svg>
