<svg width="24" height="24" viewBox="0 0 24 24" fill="none" xmlns="http://www.w3.org/2000/svg">
<mask id="mask0_1607_656" style="mask-type:alpha" maskUnits="userSpaceOnUse" x="0" y="0" width="24" height="24">
<rect width="24" height="24" fill="#D9D9D9"/>
</mask>
<g mask="url(#mask0_1607_656)">
<path d="M12.275 15.525C13.4417 15.525 14.4333 15.15 15.25 14.4C16.0667 13.65 16.475 12.7417 16.475 11.675C16.475 10.725 16.1707 9.92067 15.562 9.262C14.954 8.604 14.2167 8.275 13.35 8.275C12.5667 8.275 11.9043 8.525 11.363 9.025C10.821 9.525 10.55 10.1417 10.55 10.875C10.55 11.1917 10.6127 11.5 10.738 11.8C10.8627 12.1 11.0417 12.375 11.275 12.625L12.7 11.2C12.65 11.1667 12.6127 11.125 12.588 11.075C12.5627 11.025 12.55 10.9667 12.55 10.9C12.55 10.7167 12.625 10.5707 12.775 10.462C12.925 10.354 13.1167 10.3 13.35 10.3C13.6833 10.3 13.9583 10.4373 14.175 10.712C14.3917 10.9873 14.5 11.3167 14.5 11.7C14.5 12.2167 14.2877 12.654 13.863 13.012C13.4377 13.3707 12.9167 13.55 12.3 13.55C11.5167 13.55 10.854 13.2333 10.312 12.6C9.77067 11.9667 9.5 11.1917 9.5 10.275C9.5 9.79167 9.59167 9.329 9.775 8.887C9.95833 8.44567 10.2167 8.05833 10.55 7.725L9.125 6.3C8.59167 6.81667 8.18333 7.41667 7.9 8.1C7.61667 8.78333 7.475 9.5 7.475 10.25C7.475 11.7167 7.94167 12.9627 8.875 13.988C9.80833 15.0127 10.9417 15.525 12.275 15.525ZM6 22V17.7C5.05 16.8333 4.31267 15.8207 3.788 14.662C3.26267 13.504 3 12.2833 3 11C3 8.5 3.875 6.375 5.625 4.625C7.375 2.875 9.5 2 12 2C14.0833 2 15.9293 2.61267 17.538 3.838C19.146 5.06267 20.1917 6.65833 20.675 8.625L21.975 13.75C22.0583 14.0667 22 14.3543 21.8 14.613C21.6 14.871 21.3333 15 21 15H19V18C19 18.55 18.8043 19.021 18.413 19.413C18.021 19.8043 17.55 20 17 20H15V22H13V18H17V13H19.7L18.75 9.125C18.3667 7.60833 17.55 6.375 16.3 5.425C15.05 4.475 13.6167 4 12 4C10.0667 4 8.41667 4.675 7.05 6.025C5.68333 7.375 5 9.01667 5 10.95C5 11.95 5.20433 12.9 5.613 13.8C6.021 14.7 6.6 15.5 7.35 16.2L8 16.8V22H6Z" fill="white"/>
</g>
</svg>
