<svg width="97" height="32" viewBox="0 0 97 32" fill="none" xmlns="http://www.w3.org/2000/svg">
<rect width="96.7094" height="32" rx="6" fill="black"/>
<mask id="mask0_1539_2353" style="mask-type:alpha" maskUnits="userSpaceOnUse" x="8" y="4" width="24" height="24">
<rect x="8" y="4" width="24" height="24" fill="#D9D9D9"/>
</mask>
<g mask="url(#mask0_1539_2353)">
<path d="M12 21.5V12C12 10.3833 12.7083 9.325 14.125 8.825C15.5417 8.325 17.1667 8.05 19 8L19.75 6.5H15V5H25V6.5H21.75L21 8C22.9833 8.05 24.6458 8.32083 25.9875 8.8125C27.3292 9.30417 28 10.3667 28 12V21.5C28 22.4833 27.6625 23.3125 26.9875 23.9875C26.3125 24.6625 25.4833 25 24.5 25L26 26.5V27H24L22 25H18L16 27H14V26.5L15.5 25C14.5167 25 13.6875 24.6625 13.0125 23.9875C12.3375 23.3125 12 22.4833 12 21.5ZM20 22C20.4167 22 20.7708 21.8542 21.0625 21.5625C21.3542 21.2708 21.5 20.9167 21.5 20.5C21.5 20.0833 21.3542 19.7292 21.0625 19.4375C20.7708 19.1458 20.4167 19 20 19C19.5833 19 19.2292 19.1458 18.9375 19.4375C18.6458 19.7292 18.5 20.0833 18.5 20.5C18.5 20.9167 18.6458 21.2708 18.9375 21.5625C19.2292 21.8542 19.5833 22 20 22ZM14 16H26V13H14V16ZM15.5 23H24.5C24.9333 23 25.2917 22.8583 25.575 22.575C25.8583 22.2917 26 21.9333 26 21.5V18H14V21.5C14 21.9333 14.1417 22.2917 14.425 22.575C14.7083 22.8583 15.0667 23 15.5 23ZM19.95 10C17.7167 10 16.2833 10.1208 15.65 10.3625C15.0167 10.6042 14.6 10.8167 14.4 11H25.65C25.45 10.7667 25.0167 10.5417 24.35 10.325C23.6833 10.1083 22.2167 10 19.95 10Z" fill="white"/>
</g>
<rect x="36" y="4.89355" width="26.3363" height="22.2124" rx="3" fill="#57B157"/>
<path d="M50.1648 14.3201L53.8933 10.5178V8.89355H44.5906V10.887H51.0877L46.9901 15.0953L48.0976 16.2766C48.5037 16.0182 49.0205 15.8705 49.6111 15.8705C51.1246 15.8705 52.1583 16.9042 52.1583 18.4546C52.1583 20.1527 50.977 21.2232 49.0574 21.2232C47.5069 21.2232 46.3626 20.4849 45.6981 19.0452L44 20.0419C44.849 21.9985 46.7317 23.1059 49.1681 23.1059C52.1583 23.1059 54.3363 21.1125 54.3363 18.4546C54.3363 16.0551 52.6012 14.3201 50.1648 14.3201Z" fill="white"/>
<rect x="66.3362" y="4.80176" width="26.3732" height="22.3969" rx="3" fill="#808080"/>
<path d="M82.1991 15.8526C83.5281 15.2619 84.3033 14.1175 84.3033 12.7148C84.3033 10.3522 82.4206 8.80176 79.5412 8.80176C76.6249 8.80176 74.7422 10.3522 74.7422 12.7148C74.7422 14.1175 75.5175 15.2619 76.8464 15.8895C75.2591 16.4801 74.3362 17.6983 74.3362 19.2857C74.3362 21.6483 76.3665 23.1987 79.5412 23.1987C82.679 23.1987 84.7094 21.6483 84.7094 19.2857C84.7094 17.6983 83.7865 16.4801 82.1991 15.8526ZM79.5412 10.5368C81.1655 10.5368 82.1991 11.4597 82.1991 12.8255C82.1991 14.2283 81.1655 15.1143 79.5412 15.1143C77.88 15.1143 76.8464 14.2283 76.8464 12.8255C76.8464 11.4597 77.88 10.5368 79.5412 10.5368ZM79.5412 21.4637C77.6955 21.4637 76.5142 20.5408 76.5142 19.1011C76.5142 17.6983 77.6955 16.8124 79.5412 16.8124C81.3501 16.8124 82.5314 17.6983 82.5314 19.1011C82.5314 20.5408 81.3501 21.4637 79.5412 21.4637Z" fill="white"/>
</svg>
